<svg width="938" height="938" viewBox="0 0 938 938" fill="none" xmlns="http://www.w3.org/2000/svg">
<path d="M579.584 404.367L595.342 514.803H562.276L578.163 404.367H579.584Z" fill="url(#paint0_linear_6633_1762)"/>
<path fill-rule="evenodd" clip-rule="evenodd" d="M473.194 683.233C595.419 683.233 694.501 587.422 694.501 469.233C694.501 351.044 595.419 255.233 473.194 255.233C350.969 255.233 251.886 351.044 251.886 469.233C251.886 587.422 350.969 683.233 473.194 683.233ZM308.106 534.823C308.106 530.087 308.364 525.695 308.881 521.648C309.484 517.601 310.345 513.296 311.464 508.732H337.426V518.548C337.426 530.432 339.235 539.559 342.851 545.931C346.468 552.217 352.022 555.36 359.514 555.36C372.43 555.36 378.888 549.031 378.888 536.373C378.888 531.465 377.812 526.298 375.659 520.873C373.592 515.448 369.502 508.818 363.388 500.982L328.514 457.195C322.4 449.273 317.621 441.351 314.177 433.429C310.818 425.507 309.139 416.681 309.139 406.95C309.139 392.312 313.66 380.342 322.702 371.042C331.829 361.656 344.444 356.964 360.547 356.964C373.549 356.964 383.753 359.332 391.159 364.068C398.564 368.717 403.774 374.616 406.788 381.763C409.888 388.91 411.438 396.23 411.438 403.721C411.438 408.457 411.05 412.849 410.275 416.896C409.586 420.857 408.768 425.249 407.821 430.071H381.988V419.479C381.988 407.854 380.137 398.899 376.434 392.613C372.731 386.327 367.436 383.184 360.547 383.184C354.261 383.184 349.482 384.949 346.21 388.48C343.023 391.924 341.43 396.574 341.43 402.429C341.43 407.424 342.464 411.988 344.53 416.121C346.597 420.168 349.223 424.344 352.409 428.65L391.288 477.991C398.435 487.204 403.86 495.988 407.563 504.34C411.352 512.607 413.246 521.821 413.246 531.982C413.246 547.223 408.381 559.321 398.65 568.277C388.92 577.146 375.96 581.581 359.772 581.581C346.511 581.581 336.092 579.342 328.514 574.864C321.022 570.3 315.727 564.445 312.627 557.298C309.613 550.151 308.106 542.659 308.106 534.823ZM452.047 358.901H485.501V579.514H452.047V358.901ZM597.667 358.901H559.951L518.877 579.514H552.589L558.401 539.99H599.217L605.288 579.514H638.871L597.667 358.901Z" fill="url(#paint1_linear_6633_1762)"/>
<path fill-rule="evenodd" clip-rule="evenodd" d="M937.17 458.54C942.748 717.302 737.503 931.592 478.741 937.17C219.979 942.748 5.68925 737.503 0.111062 478.741C-5.46712 219.979 199.779 5.68925 458.54 0.111062C717.302 -5.46712 931.592 199.779 937.17 458.54ZM717.3 818.491C649.61 866.694 567.233 895.789 477.89 897.715C384.022 899.739 296.543 871.468 224.804 821.856C225.808 821.891 226.813 821.914 227.82 821.927C255.718 822.276 284.008 814.104 310.876 804.374C322.9 800.02 335.122 795.164 347.16 790.381C348.69 789.773 350.218 789.166 351.742 788.561C365.392 783.146 378.871 777.867 392.421 773.184C419.606 763.79 445.873 757.244 471.654 757.064C497.436 756.884 523.792 763.064 551.105 772.077C564.72 776.57 578.271 781.661 591.995 786.885C593.527 787.469 595.063 788.054 596.602 788.641L596.606 788.643C608.708 793.256 620.995 797.941 633.077 802.126C660.078 811.481 688.479 819.257 716.37 818.519C716.68 818.511 716.99 818.501 717.3 818.491ZM716.144 117.989C683.697 116.038 650.049 124.949 618.756 135.402C604.857 140.045 590.758 145.24 576.894 150.349L576.892 150.349L576.89 150.35L574.143 151.362C559.271 156.84 544.635 162.194 530.062 166.95C506.377 174.679 483.802 180.494 462.357 182.534C457.079 182.662 451.818 182.927 446.578 183.327C421.176 183.386 396.433 177.237 371.516 168.341C358.946 163.853 346.568 158.756 334.084 153.501C331.894 152.579 329.693 151.649 327.485 150.716L327.464 150.707C317.264 146.397 306.914 142.023 296.779 138.093C272.314 128.605 246.179 120.472 219.782 121.132C218.703 121.159 217.627 121.201 216.553 121.257C284.882 71.5809 368.534 41.5248 459.391 39.5662C554.865 37.508 643.728 66.7896 716.144 117.989ZM448.399 225.878C453.843 225.818 459.291 225.534 464.731 225.055C465.801 225.034 466.871 225.02 467.943 225.013C535.375 224.543 600.094 250.039 647.895 295.685C695.672 341.309 722.635 403.304 723.086 467.99C723.537 532.675 697.442 595.041 650.306 641.327C647.14 644.436 643.896 647.455 640.58 650.382C634.883 655.092 629.043 659.798 623.059 664.504C579.722 696.351 526.571 714.117 471.358 714.503C403.925 714.973 339.206 689.477 291.406 643.831C243.629 598.207 216.666 536.211 216.214 471.526C215.763 406.84 241.859 344.475 288.995 298.189C292.403 294.842 295.9 291.6 299.483 288.463C304.949 283.981 310.534 279.499 316.238 275.014C354.436 246.943 400.259 229.81 448.399 225.878ZM351.528 206.358C339.791 202.002 328.42 197.297 317.571 192.73C315.245 191.751 312.95 190.781 310.682 189.823L310.68 189.822C300.507 185.524 290.874 181.454 281.389 177.776C257.984 168.699 238.417 163.242 220.847 163.682C204.426 164.093 188.4 169.693 171.655 186.137C93.8161 262.572 50.6378 365.658 51.3844 472.676C51.8949 545.852 72.9145 616.902 111.38 678.608C88.4913 607.499 86.4859 543.417 102.844 483.969C126.753 397.084 188.844 324.223 271.994 255.961C295.771 235.247 322.661 218.563 351.528 206.358ZM178.461 418.253C162.858 443.081 151.213 468.619 143.882 495.262C122.996 571.161 136.006 660.403 201.274 774.346C209.977 777.764 218.962 779.25 228.352 779.368C248.249 779.616 270.556 773.708 296.383 764.355C307.749 760.239 319.33 755.638 331.45 750.824C332.974 750.219 334.505 749.61 336.047 748.999C345.121 745.399 354.463 741.72 363.977 738.183C326.212 724.19 291.418 702.695 262.011 674.612C206.053 621.176 174.186 548.246 173.653 471.823C173.527 453.723 175.16 435.795 178.461 418.253ZM579.058 736.682C588.62 740.087 598.013 743.634 607.137 747.107C607.919 747.405 608.7 747.703 609.478 747.999L611.758 748.868C623.944 753.513 635.588 757.952 647.01 761.909C672.966 770.901 695.352 776.497 715.245 775.971C734.11 775.472 751.263 769.466 767.646 753.379C845.484 676.943 888.662 573.858 887.916 466.84C887.317 381.09 858.557 298.26 806.562 229.965C839.481 312.327 846.641 385.677 830.578 453.203C809.75 540.755 750.818 614.361 668.216 682.759C641.848 705.922 611.607 724.103 579.058 736.682ZM762.407 512.092C764.654 497.489 765.752 482.65 765.648 467.693C765.114 391.27 733.247 318.339 677.289 264.903C646.056 235.077 608.746 212.682 568.254 198.813C575.202 196.323 582.081 193.796 588.854 191.301L591.44 190.349C605.461 185.183 618.983 180.201 632.241 175.772C669.765 163.237 700.461 156.888 726.024 162.121C791.588 276.326 807.437 366.569 789.171 443.353C783.535 467.041 774.558 489.871 762.407 512.092Z" fill="url(#paint2_linear_6633_1762)"/>
<defs>
<linearGradient id="paint0_linear_6633_1762" x1="-212.267" y1="91.1246" x2="1124.07" y2="212.109" gradientUnits="userSpaceOnUse">
<stop stop-color="#B200CD"/>
<stop offset="0.139739" stop-color="#F98257"/>
<stop offset="0.22117" stop-color="#FF8A4B"/>
<stop offset="1" stop-color="#A514FF"/>
</linearGradient>
<linearGradient id="paint1_linear_6633_1762" x1="-212.267" y1="91.1246" x2="1124.07" y2="212.109" gradientUnits="userSpaceOnUse">
<stop stop-color="#B200CD"/>
<stop offset="0.139739" stop-color="#F98257"/>
<stop offset="0.22117" stop-color="#FF8A4B"/>
<stop offset="1" stop-color="#A514FF"/>
</linearGradient>
<linearGradient id="paint2_linear_6633_1762" x1="-212.267" y1="91.1246" x2="1124.07" y2="212.109" gradientUnits="userSpaceOnUse">
<stop stop-color="#B200CD"/>
<stop offset="0.139739" stop-color="#F98257"/>
<stop offset="0.22117" stop-color="#FF8A4B"/>
<stop offset="1" stop-color="#A514FF"/>
</linearGradient>
</defs>
</svg>