<svg width="6000" height="2200" viewBox="15.905 330.066 1904.565 457.269" fill="none" xmlns="http://www.w3.org/2000/svg">
<path d="M139.169 683.953C115.841 683.953 93.3094 679.976 71.5725 672.024C50.3659 664.071 33.9307 652.673 22.267 637.828C18.0257 631.996 15.905 626.164 15.905 620.332C15.905 613.44 18.5558 607.608 23.8575 602.837C29.6893 597.535 36.0513 594.884 42.9435 594.884C46.6547 594.884 50.3659 595.68 54.077 597.27C57.7882 598.331 60.7041 600.451 62.8248 603.632C71.3074 613.705 82.706 621.658 97.0205 627.49C111.865 633.322 127.24 636.237 143.145 636.237C161.701 636.237 176.811 631.731 188.474 622.718C200.668 613.705 206.765 601.777 206.765 586.932C206.765 569.967 199.608 558.038 185.293 551.146C171.509 543.723 155.339 538.422 136.783 535.241C119.818 532.06 102.587 527.553 85.0918 521.721C67.5963 515.359 53.0167 506.347 41.353 494.683C29.6893 482.489 23.8575 466.054 23.8575 445.377C23.8575 417.279 34.4608 395.012 55.6675 378.576C77.4044 362.141 106.298 353.924 142.35 353.924C161.436 353.924 178.931 356.84 194.836 362.671C210.741 367.973 223.995 375.395 234.599 384.938C240.961 390.24 244.142 396.867 244.142 404.82C244.142 411.182 241.756 416.748 236.985 421.52C232.213 426.291 226.646 428.677 220.284 428.677C213.922 428.677 207.825 426.556 201.994 422.315C185.028 408.531 164.087 401.639 139.169 401.639C96.7555 401.639 75.5488 415.953 75.5488 444.582C75.5488 458.367 81.9108 467.91 94.6348 473.211C107.889 477.983 125.65 483.019 147.917 488.321C158.52 490.442 169.918 493.623 182.112 497.864C194.836 501.575 207.03 507.142 218.694 514.564C230.357 521.456 239.901 530.999 247.323 543.193C254.745 554.857 258.456 569.702 258.456 587.727C258.456 616.356 247.323 639.684 225.056 657.709C203.319 675.205 174.69 683.953 139.169 683.953ZM415.605 683.953C380.084 683.953 350.925 672.554 328.128 649.757C305.331 626.96 293.932 597.27 293.932 560.689C293.932 537.361 299.234 516.685 309.837 498.659C320.44 480.634 334.755 466.584 352.78 456.511C371.336 446.438 392.278 441.401 415.605 441.401C447.415 441.401 474.454 448.823 496.721 463.668C504.143 468.44 507.854 475.067 507.854 483.549C507.854 492.032 505.203 498.659 499.902 503.431C494.6 508.202 488.503 510.588 481.611 510.588C476.84 510.588 472.598 509.528 468.887 507.407C449.271 494.153 430.98 488.321 414.015 489.911C393.338 492.032 377.168 499.189 365.504 511.383C353.841 523.047 348.009 539.747 348.009 561.484C348.009 584.281 354.106 602.307 366.3 615.561C379.024 628.285 396.784 634.647 419.581 634.647C439.728 634.647 459.874 626.96 480.021 611.585C484.262 607.874 489.829 606.018 496.721 606.018C504.673 606.018 510.505 609.199 514.216 615.561C518.458 621.393 520.578 626.96 520.578 632.261C520.578 639.684 517.132 646.576 510.24 652.938C496.986 664.601 482.406 672.554 466.501 676.795C450.596 681.567 433.631 683.953 415.605 683.953ZM671.924 683.953C648.597 683.953 627.39 678.651 608.304 668.047C589.748 657.444 575.169 642.865 564.566 624.309C553.962 605.223 548.661 584.016 548.661 560.689C548.661 537.892 553.962 517.48 564.566 499.454C575.169 481.429 589.748 467.379 608.304 457.306C627.39 446.703 648.597 441.401 671.924 441.401C695.252 441.401 716.193 446.703 734.749 457.306C753.305 467.379 767.885 481.429 778.488 499.454C789.621 517.48 795.188 537.892 795.188 560.689C795.188 584.016 789.621 605.223 778.488 624.309C767.885 642.865 753.305 657.444 734.749 668.047C716.193 678.651 695.252 683.953 671.924 683.953ZM671.924 634.647C692.601 634.647 709.301 628.02 722.025 614.766C734.749 600.981 741.111 582.956 741.111 560.689C741.111 539.482 734.749 522.517 722.025 509.793C709.301 497.069 692.601 490.707 671.924 490.707C650.718 490.707 633.752 497.069 621.028 509.793C608.835 522.517 602.738 539.482 602.738 560.689C602.738 582.956 608.835 600.981 621.028 614.766C633.752 628.02 650.718 634.647 671.924 634.647ZM940.408 787.335C929.275 787.335 916.816 786.275 903.032 784.154C889.247 782.033 875.728 777.527 862.474 770.635C852.401 765.333 847.364 757.116 847.364 745.982C847.364 739.62 849.485 733.788 853.726 728.487C858.497 723.185 864.329 720.534 871.221 720.534C875.993 720.534 880.764 721.859 885.536 724.51C895.609 729.812 905.682 733.523 915.756 735.644C925.829 737.764 935.637 738.825 945.18 738.825C964.266 738.825 980.701 733.788 994.485 723.715C1008.27 714.172 1015.16 698.797 1015.16 677.591V655.323C1006.15 664.336 995.546 671.228 983.352 676C971.688 681.302 958.434 683.953 943.589 683.953C921.852 683.953 901.971 678.651 883.945 668.047C866.45 657.444 852.401 642.865 841.797 624.309C831.724 605.753 826.687 584.811 826.687 561.484C826.687 538.157 831.724 517.215 841.797 498.659C851.87 480.103 865.655 465.524 883.15 454.92C900.646 444.317 920.527 439.811 942.794 441.401C958.169 442.462 971.688 445.643 983.352 450.944C995.546 455.716 1006.15 462.343 1015.16 470.825C1015.16 463.403 1017.55 457.306 1022.32 452.535C1027.62 447.763 1034.25 445.377 1042.2 445.377C1050.15 445.377 1056.51 447.763 1061.29 452.535C1066.59 457.306 1069.24 463.403 1069.24 470.825V679.181C1069.24 703.569 1063.41 723.715 1051.74 739.62C1040.61 756.055 1025.23 767.984 1005.62 775.406C986.003 783.359 964.266 787.335 940.408 787.335ZM949.951 634.647C970.098 634.647 986.003 628.02 997.666 614.766C1009.33 600.981 1015.16 582.956 1015.16 560.689C1015.16 539.482 1009.33 522.517 997.666 509.793C986.003 497.069 970.098 490.707 949.951 490.707C929.275 490.707 912.575 497.069 899.851 509.793C887.126 522.517 880.764 539.747 880.764 561.484C880.764 582.691 886.861 600.186 899.055 613.97C911.779 627.755 928.745 634.647 949.951 634.647ZM1240.4 683.953C1217.08 683.953 1195.87 678.651 1176.78 668.047C1158.23 657.444 1143.65 642.865 1133.05 624.309C1122.44 605.223 1117.14 584.016 1117.14 560.689C1117.14 537.892 1122.44 517.48 1133.05 499.454C1143.65 481.429 1158.23 467.379 1176.78 457.306C1195.87 446.703 1217.08 441.401 1240.4 441.401C1263.73 441.401 1284.67 446.703 1303.23 457.306C1321.78 467.379 1336.36 481.429 1346.97 499.454C1358.1 517.48 1363.67 537.892 1363.67 560.689C1363.67 584.016 1358.1 605.223 1346.97 624.309C1336.36 642.865 1321.78 657.444 1303.23 668.047C1284.67 678.651 1263.73 683.953 1240.4 683.953ZM1240.4 634.647C1261.08 634.647 1277.78 628.02 1290.5 614.766C1303.23 600.981 1309.59 582.956 1309.59 560.689C1309.59 539.482 1303.23 522.517 1290.5 509.793C1277.78 497.069 1261.08 490.707 1240.4 490.707C1219.2 490.707 1202.23 497.069 1189.51 509.793C1177.31 522.517 1171.22 539.482 1171.22 560.689C1171.22 582.956 1177.31 600.981 1189.51 614.766C1202.23 628.02 1219.2 634.647 1240.4 634.647ZM1459.58 687.929C1449.51 687.929 1440.76 684.483 1433.34 677.591C1426.45 671.228 1423 663.541 1423 654.528C1423 644.985 1426.45 637.033 1433.34 630.671C1440.76 623.779 1449.51 620.332 1459.58 620.332C1469.13 620.332 1477.34 623.779 1484.24 630.671C1491.13 637.033 1494.57 644.985 1494.57 654.528C1494.57 663.541 1491.13 671.228 1484.24 677.591C1477.34 684.483 1469.13 687.929 1459.58 687.929ZM1672.86 683.953C1650.07 683.953 1629.66 678.651 1611.63 668.047C1593.6 657.444 1579.56 642.865 1569.48 624.309C1559.41 605.223 1554.37 584.016 1554.37 560.689C1554.37 537.892 1559.41 517.48 1569.48 499.454C1579.56 481.429 1593.6 467.379 1611.63 457.306C1629.66 446.703 1650.07 441.401 1672.86 441.401C1687.71 441.401 1700.96 444.052 1712.63 449.354C1724.29 454.125 1734.36 460.487 1742.85 468.44C1743.91 461.017 1747.09 455.451 1752.39 451.739C1757.69 447.498 1763.52 445.377 1769.89 445.377C1776.78 445.377 1782.87 447.763 1788.18 452.535C1794.01 456.776 1796.92 463.403 1796.92 472.416V659.3C1796.92 667.252 1794.01 673.349 1788.18 677.591C1782.87 681.832 1776.78 683.953 1769.89 683.953C1762.99 683.953 1756.63 681.832 1750.8 677.591C1745.5 673.349 1742.85 667.252 1742.85 659.3V656.119C1734.36 664.601 1724.29 671.228 1712.63 676C1700.96 681.302 1687.71 683.953 1672.86 683.953ZM1677.64 634.647C1697.78 634.647 1713.69 628.02 1725.35 614.766C1737.02 600.981 1742.85 582.956 1742.85 560.689C1742.85 539.482 1737.02 522.517 1725.35 509.793C1713.69 497.069 1697.78 490.707 1677.64 490.707C1656.96 490.707 1640.26 497.069 1627.54 509.793C1614.81 522.517 1608.45 539.482 1608.45 560.689C1608.45 582.956 1614.81 600.981 1627.54 614.766C1640.26 628.02 1656.96 634.647 1677.64 634.647ZM1884.68 683.953C1877.79 683.953 1871.43 681.832 1865.59 677.591C1860.29 673.349 1857.64 667.252 1857.64 659.3V468.44C1857.64 459.427 1860.29 452.8 1865.59 448.558C1871.43 443.787 1877.79 441.401 1884.68 441.401C1891.57 441.401 1897.67 443.787 1902.97 448.558C1908.8 452.8 1911.72 459.427 1911.72 468.44V659.3C1911.72 667.252 1908.8 673.349 1902.97 677.591C1897.67 681.832 1891.57 683.953 1884.68 683.953ZM1885.48 397.662C1875.4 397.662 1866.66 394.481 1859.23 388.119C1852.34 381.227 1848.89 373.01 1848.89 363.467C1848.89 354.454 1852.34 346.766 1859.23 340.404C1866.66 333.512 1875.4 330.066 1885.48 330.066C1895.02 330.066 1903.24 333.512 1910.13 340.404C1917.02 346.766 1920.47 354.454 1920.47 363.467C1920.47 373.01 1917.02 381.227 1910.13 388.119C1903.24 394.481 1895.02 397.662 1885.48 397.662Z" fill="url(#paint0_linear_6633_1744)"/>
<defs>
<linearGradient id="paint0_linear_6633_1744" x1="-440.485" y1="112" x2="2291.51" y2="529.601" gradientUnits="userSpaceOnUse">
<stop stop-color="#B200CD"/>
<stop offset="0.139739" stop-color="#F98257"/>
<stop offset="0.22117" stop-color="#FF8A4B"/>
<stop offset="1" stop-color="#A514FF"/>
</linearGradient>
</defs>
</svg>
