<svg width="6000" height="2200" viewBox="0 0 3700 1422" fill="none" xmlns="http://www.w3.org/2000/svg">
<path d="M1356.17 886.953C1332.84 886.953 1310.31 882.976 1288.57 875.024C1267.37 867.071 1250.93 855.673 1239.27 840.828C1235.03 834.996 1232.91 829.164 1232.91 823.332C1232.91 816.44 1235.56 810.608 1240.86 805.837C1246.69 800.535 1253.05 797.884 1259.94 797.884C1263.65 797.884 1267.37 798.68 1271.08 800.27C1274.79 801.331 1277.7 803.451 1279.82 806.632C1288.31 816.705 1299.71 824.658 1314.02 830.49C1328.87 836.322 1344.24 839.237 1360.15 839.237C1378.7 839.237 1393.81 834.731 1405.47 825.718C1417.67 816.705 1423.77 804.777 1423.77 789.932C1423.77 772.967 1416.61 761.038 1402.29 754.146C1388.51 746.723 1372.34 741.422 1353.78 738.241C1336.82 735.06 1319.59 730.553 1302.09 724.721C1284.6 718.359 1270.02 709.347 1258.35 697.683C1246.69 685.489 1240.86 669.054 1240.86 648.377C1240.86 620.279 1251.46 598.012 1272.67 581.576C1294.4 565.141 1323.3 556.924 1359.35 556.924C1378.44 556.924 1395.93 559.84 1411.84 565.671C1427.74 570.973 1441 578.395 1451.6 587.938C1457.96 593.24 1461.14 599.867 1461.14 607.82C1461.14 614.182 1458.76 619.748 1453.98 624.52C1449.21 629.291 1443.65 631.677 1437.28 631.677C1430.92 631.677 1424.83 629.556 1418.99 625.315C1402.03 611.531 1381.09 604.639 1356.17 604.639C1313.76 604.639 1292.55 618.953 1292.55 647.582C1292.55 661.367 1298.91 670.91 1311.63 676.211C1324.89 680.983 1342.65 686.019 1364.92 691.321C1375.52 693.442 1386.92 696.623 1399.11 700.864C1411.84 704.575 1424.03 710.142 1435.69 717.564C1447.36 724.456 1456.9 733.999 1464.32 746.193C1471.75 757.857 1475.46 772.702 1475.46 790.727C1475.46 819.356 1464.32 842.684 1442.06 860.709C1420.32 878.205 1391.69 886.953 1356.17 886.953ZM1632.61 886.953C1597.08 886.953 1567.92 875.554 1545.13 852.757C1522.33 829.96 1510.93 800.27 1510.93 763.689C1510.93 740.361 1516.23 719.685 1526.84 701.659C1537.44 683.634 1551.75 669.584 1569.78 659.511C1588.34 649.438 1609.28 644.401 1632.61 644.401C1664.42 644.401 1691.45 651.823 1713.72 666.668C1721.14 671.44 1724.85 678.067 1724.85 686.549C1724.85 695.032 1722.2 701.659 1716.9 706.431C1711.6 711.202 1705.5 713.588 1698.61 713.588C1693.84 713.588 1689.6 712.528 1685.89 710.407C1666.27 697.153 1647.98 691.321 1631.01 692.911C1610.34 695.032 1594.17 702.189 1582.5 714.383C1570.84 726.047 1565.01 742.747 1565.01 764.484C1565.01 787.281 1571.11 805.307 1583.3 818.561C1596.02 831.285 1613.78 837.647 1636.58 837.647C1656.73 837.647 1676.87 829.96 1697.02 814.585C1701.26 810.874 1706.83 809.018 1713.72 809.018C1721.67 809.018 1727.51 812.199 1731.22 818.561C1735.46 824.393 1737.58 829.96 1737.58 835.261C1737.58 842.684 1734.13 849.576 1727.24 855.938C1713.99 867.601 1699.41 875.554 1683.5 879.795C1667.6 884.567 1650.63 886.953 1632.61 886.953ZM1888.92 886.953C1865.6 886.953 1844.39 881.651 1825.3 871.047C1806.75 860.444 1792.17 845.865 1781.57 827.309C1770.96 808.223 1765.66 787.016 1765.66 763.689C1765.66 740.892 1770.96 720.48 1781.57 702.454C1792.17 684.429 1806.75 670.379 1825.3 660.306C1844.39 649.703 1865.6 644.401 1888.92 644.401C1912.25 644.401 1933.19 649.703 1951.75 660.306C1970.3 670.379 1984.88 684.429 1995.49 702.454C2006.62 720.48 2012.19 740.892 2012.19 763.689C2012.19 787.016 2006.62 808.223 1995.49 827.309C1984.88 845.865 1970.3 860.444 1951.75 871.047C1933.19 881.651 1912.25 886.953 1888.92 886.953ZM1888.92 837.647C1909.6 837.647 1926.3 831.02 1939.03 817.766C1951.75 803.981 1958.11 785.956 1958.11 763.689C1958.11 742.482 1951.75 725.517 1939.03 712.793C1926.3 700.069 1909.6 693.707 1888.92 693.707C1867.72 693.707 1850.75 700.069 1838.03 712.793C1825.83 725.517 1819.74 742.482 1819.74 763.689C1819.74 785.956 1825.83 803.981 1838.03 817.766C1850.75 831.02 1867.72 837.647 1888.92 837.647ZM2157.41 990.335C2146.27 990.335 2133.82 989.275 2120.03 987.154C2106.25 985.033 2092.73 980.527 2079.47 973.635C2069.4 968.333 2064.36 960.116 2064.36 948.982C2064.36 942.62 2066.48 936.788 2070.73 931.487C2075.5 926.185 2081.33 923.534 2088.22 923.534C2092.99 923.534 2097.76 924.859 2102.54 927.51C2112.61 932.812 2122.68 936.523 2132.76 938.644C2142.83 940.764 2152.64 941.825 2162.18 941.825C2181.27 941.825 2197.7 936.788 2211.49 926.715C2225.27 917.172 2232.16 901.797 2232.16 880.591V858.323C2223.15 867.336 2212.55 874.228 2200.35 879C2188.69 884.302 2175.43 886.953 2160.59 886.953C2138.85 886.953 2118.97 881.651 2100.95 871.047C2083.45 860.444 2069.4 845.865 2058.8 827.309C2048.72 808.753 2043.69 787.811 2043.69 764.484C2043.69 741.157 2048.72 720.215 2058.8 701.659C2068.87 683.103 2082.65 668.524 2100.15 657.92C2117.65 647.317 2137.53 642.811 2159.79 644.401C2175.17 645.462 2188.69 648.643 2200.35 653.944C2212.55 658.716 2223.15 665.343 2232.16 673.825C2232.16 666.403 2234.55 660.306 2239.32 655.535C2244.62 650.763 2251.25 648.377 2259.2 648.377C2267.15 648.377 2273.51 650.763 2278.29 655.535C2283.59 660.306 2286.24 666.403 2286.24 673.825V882.181C2286.24 906.569 2280.41 926.715 2268.74 942.62C2257.61 959.055 2242.23 970.984 2222.62 978.406C2203 986.359 2181.27 990.335 2157.41 990.335ZM2166.95 837.647C2187.1 837.647 2203 831.02 2214.67 817.766C2226.33 803.981 2232.16 785.956 2232.16 763.689C2232.16 742.482 2226.33 725.517 2214.67 712.793C2203 700.069 2187.1 693.707 2166.95 693.707C2146.27 693.707 2129.57 700.069 2116.85 712.793C2104.13 725.517 2097.76 742.747 2097.76 764.484C2097.76 785.691 2103.86 803.186 2116.06 816.97C2128.78 830.755 2145.74 837.647 2166.95 837.647ZM2457.4 886.953C2434.08 886.953 2412.87 881.651 2393.78 871.047C2375.23 860.444 2360.65 845.865 2350.05 827.309C2339.44 808.223 2334.14 787.016 2334.14 763.689C2334.14 740.892 2339.44 720.48 2350.05 702.454C2360.65 684.429 2375.23 670.379 2393.78 660.306C2412.87 649.703 2434.08 644.401 2457.4 644.401C2480.73 644.401 2501.67 649.703 2520.23 660.306C2538.78 670.379 2553.36 684.429 2563.97 702.454C2575.1 720.48 2580.67 740.892 2580.67 763.689C2580.67 787.016 2575.1 808.223 2563.97 827.309C2553.36 845.865 2538.78 860.444 2520.23 871.047C2501.67 881.651 2480.73 886.953 2457.4 886.953ZM2457.4 837.647C2478.08 837.647 2494.78 831.02 2507.5 817.766C2520.23 803.981 2526.59 785.956 2526.59 763.689C2526.59 742.482 2520.23 725.517 2507.5 712.793C2494.78 700.069 2478.08 693.707 2457.4 693.707C2436.2 693.707 2419.23 700.069 2406.51 712.793C2394.31 725.517 2388.22 742.482 2388.22 763.689C2388.22 785.956 2394.31 803.981 2406.51 817.766C2419.23 831.02 2436.2 837.647 2457.4 837.647ZM2676.58 890.929C2666.51 890.929 2657.76 887.483 2650.34 880.591C2643.45 874.228 2640 866.541 2640 857.528C2640 847.985 2643.45 840.033 2650.34 833.671C2657.76 826.779 2666.51 823.332 2676.58 823.332C2686.13 823.332 2694.34 826.779 2701.24 833.671C2708.13 840.033 2711.57 847.985 2711.57 857.528C2711.57 866.541 2708.13 874.228 2701.24 880.591C2694.34 887.483 2686.13 890.929 2676.58 890.929ZM2889.86 886.953C2867.07 886.953 2846.66 881.651 2828.63 871.047C2810.6 860.444 2796.56 845.865 2786.48 827.309C2776.41 808.223 2771.37 787.016 2771.37 763.689C2771.37 740.892 2776.41 720.48 2786.48 702.454C2796.56 684.429 2810.6 670.379 2828.63 660.306C2846.66 649.703 2867.07 644.401 2889.86 644.401C2904.71 644.401 2917.96 647.052 2929.63 652.354C2941.29 657.125 2951.36 663.487 2959.85 671.44C2960.91 664.017 2964.09 658.451 2969.39 654.739C2974.69 650.498 2980.52 648.377 2986.89 648.377C2993.78 648.377 2999.87 650.763 3005.18 655.535C3011.01 659.776 3013.92 666.403 3013.92 675.416V862.3C3013.92 870.252 3011.01 876.349 3005.18 880.591C2999.87 884.832 2993.78 886.953 2986.89 886.953C2979.99 886.953 2973.63 884.832 2967.8 880.591C2962.5 876.349 2959.85 870.252 2959.85 862.3V859.119C2951.36 867.601 2941.29 874.228 2929.63 879C2917.96 884.302 2904.71 886.953 2889.86 886.953ZM2894.64 837.647C2914.78 837.647 2930.69 831.02 2942.35 817.766C2954.02 803.981 2959.85 785.956 2959.85 763.689C2959.85 742.482 2954.02 725.517 2942.35 712.793C2930.69 700.069 2914.78 693.707 2894.64 693.707C2873.96 693.707 2857.26 700.069 2844.54 712.793C2831.81 725.517 2825.45 742.482 2825.45 763.689C2825.45 785.956 2831.81 803.981 2844.54 817.766C2857.26 831.02 2873.96 837.647 2894.64 837.647ZM3101.68 886.953C3094.79 886.953 3088.43 884.832 3082.59 880.591C3077.29 876.349 3074.64 870.252 3074.64 862.3V671.44C3074.64 662.427 3077.29 655.8 3082.59 651.558C3088.43 646.787 3094.79 644.401 3101.68 644.401C3108.57 644.401 3114.67 646.787 3119.97 651.558C3125.8 655.8 3128.72 662.427 3128.72 671.44V862.3C3128.72 870.252 3125.8 876.349 3119.97 880.591C3114.67 884.832 3108.57 886.953 3101.68 886.953ZM3102.48 600.662C3092.4 600.662 3083.66 597.481 3076.23 591.119C3069.34 584.227 3065.89 576.01 3065.89 566.467C3065.89 557.454 3069.34 549.766 3076.23 543.404C3083.66 536.512 3092.4 533.066 3102.48 533.066C3112.02 533.066 3120.24 536.512 3127.13 543.404C3134.02 549.766 3137.47 557.454 3137.47 566.467C3137.47 576.01 3134.02 584.227 3127.13 591.119C3120.24 597.481 3112.02 600.662 3102.48 600.662Z" fill="url(#paint0_linear_6633_1734)"/>
<path d="M752.584 655.367L768.342 765.803H735.276L751.163 655.367H752.584Z" fill="url(#paint1_linear_6633_1734)"/>
<path fill-rule="evenodd" clip-rule="evenodd" d="M646.194 934.233C768.419 934.233 867.501 838.422 867.501 720.233C867.501 602.044 768.419 506.233 646.194 506.233C523.969 506.233 424.886 602.044 424.886 720.233C424.886 838.422 523.969 934.233 646.194 934.233ZM481.106 785.823C481.106 781.087 481.364 776.695 481.881 772.648C482.484 768.601 483.345 764.296 484.464 759.732H510.426V769.548C510.426 781.432 512.235 790.559 515.851 796.931C519.468 803.217 525.022 806.36 532.514 806.36C545.43 806.36 551.888 800.031 551.888 787.373C551.888 782.465 550.812 777.298 548.659 771.873C546.592 766.448 542.502 759.818 536.388 751.982L501.514 708.195C495.4 700.273 490.621 692.351 487.177 684.429C483.818 676.507 482.139 667.681 482.139 657.95C482.139 643.312 486.66 631.342 495.702 622.042C504.829 612.656 517.444 607.964 533.547 607.964C546.549 607.964 556.753 610.332 564.159 615.068C571.564 619.717 576.774 625.616 579.788 632.763C582.888 639.91 584.438 647.23 584.438 654.721C584.438 659.457 584.05 663.849 583.275 667.896C582.586 671.857 581.768 676.249 580.821 681.071H554.988V670.479C554.988 658.854 553.137 649.899 549.434 643.613C545.731 637.327 540.436 634.184 533.547 634.184C527.261 634.184 522.482 635.949 519.21 639.48C516.023 642.924 514.43 647.574 514.43 653.429C514.43 658.424 515.464 662.988 517.53 667.121C519.597 671.168 522.223 675.344 525.409 679.65L564.288 728.991C571.435 738.204 576.86 746.988 580.563 755.34C584.352 763.607 586.246 772.821 586.246 782.982C586.246 798.223 581.381 810.321 571.65 819.277C561.92 828.146 548.96 832.581 532.772 832.581C519.511 832.581 509.092 830.342 501.514 825.864C494.022 821.3 488.727 815.445 485.627 808.298C482.613 801.151 481.106 793.659 481.106 785.823ZM625.047 609.901H658.501V830.514H625.047V609.901ZM770.667 609.901H732.951L691.877 830.514H725.589L731.401 790.99H772.217L778.288 830.514H811.871L770.667 609.901Z" fill="url(#paint2_linear_6633_1734)"/>
<path fill-rule="evenodd" clip-rule="evenodd" d="M1110.17 709.54C1115.75 968.302 910.503 1182.59 651.741 1188.17C392.979 1193.75 178.689 988.503 173.111 729.741C167.533 470.979 372.779 256.689 631.54 251.111C890.302 245.533 1104.59 450.779 1110.17 709.54ZM890.3 1069.49C822.61 1117.69 740.233 1146.79 650.89 1148.72C557.022 1150.74 469.543 1122.47 397.804 1072.86C398.808 1072.89 399.813 1072.91 400.82 1072.93C428.718 1073.28 457.008 1065.1 483.876 1055.37C495.9 1051.02 508.122 1046.16 520.16 1041.38C521.69 1040.77 523.218 1040.17 524.742 1039.56C538.392 1034.15 551.871 1028.87 565.421 1024.18C592.606 1014.79 618.873 1008.24 644.654 1008.06C670.436 1007.88 696.792 1014.06 724.105 1023.08C737.72 1027.57 751.271 1032.66 764.995 1037.89C766.527 1038.47 768.063 1039.05 769.602 1039.64L769.606 1039.64C781.708 1044.26 793.995 1048.94 806.077 1053.13C833.078 1062.48 861.479 1070.26 889.37 1069.52C889.68 1069.51 889.99 1069.5 890.3 1069.49ZM889.144 368.989C856.697 367.038 823.049 375.949 791.756 386.402C777.857 391.045 763.758 396.24 749.894 401.349L749.892 401.349L749.89 401.35L747.143 402.362C732.271 407.84 717.635 413.194 703.062 417.95C679.377 425.679 656.802 431.494 635.357 433.534C630.079 433.662 624.818 433.927 619.578 434.327C594.176 434.386 569.433 428.237 544.516 419.341C531.946 414.853 519.568 409.756 507.084 404.501C504.894 403.579 502.693 402.649 500.485 401.716L500.464 401.707C490.264 397.397 479.914 393.023 469.779 389.093C445.314 379.605 419.179 371.472 392.782 372.132C391.703 372.159 390.627 372.201 389.553 372.257C457.882 322.581 541.534 292.525 632.391 290.566C727.865 288.508 816.728 317.79 889.144 368.989ZM621.399 476.878C626.843 476.818 632.291 476.534 637.731 476.055C638.801 476.034 639.871 476.02 640.943 476.013C708.375 475.543 773.094 501.039 820.895 546.685C868.672 592.309 895.635 654.304 896.086 718.99C896.537 783.675 870.442 846.041 823.306 892.327C820.14 895.436 816.896 898.455 813.58 901.382C807.883 906.092 802.043 910.798 796.059 915.504C752.722 947.351 699.571 965.117 644.358 965.503C576.925 965.973 512.206 940.477 464.406 894.831C416.629 849.207 389.666 787.211 389.214 722.526C388.763 657.84 414.859 595.475 461.995 549.189C465.403 545.842 468.9 542.6 472.483 539.463C477.949 534.981 483.534 530.499 489.238 526.014C527.436 497.943 573.259 480.81 621.399 476.878ZM524.528 457.358C512.791 453.002 501.42 448.297 490.571 443.73C488.245 442.751 485.95 441.781 483.682 440.823L483.68 440.822C473.507 436.524 463.874 432.454 454.389 428.776C430.984 419.699 411.417 414.242 393.847 414.682C377.426 415.093 361.4 420.693 344.655 437.137C266.816 513.572 223.638 616.658 224.384 723.676C224.895 796.852 245.915 867.902 284.38 929.608C261.491 858.499 259.486 794.417 275.844 734.969C299.753 648.084 361.844 575.223 444.994 506.961C468.771 486.247 495.661 469.563 524.528 457.358ZM351.461 669.253C335.858 694.081 324.213 719.619 316.882 746.262C295.996 822.161 309.006 911.403 374.274 1025.35C382.977 1028.76 391.962 1030.25 401.352 1030.37C421.249 1030.62 443.556 1024.71 469.383 1015.35C480.749 1011.24 492.33 1006.64 504.45 1001.82C505.974 1001.22 507.505 1000.61 509.047 999.999C518.121 996.399 527.463 992.72 536.977 989.183C499.212 975.19 464.418 953.695 435.011 925.612C379.053 872.176 347.186 799.246 346.653 722.823C346.527 704.723 348.16 686.795 351.461 669.253ZM752.058 987.682C761.62 991.087 771.013 994.634 780.137 998.107C780.919 998.405 781.7 998.703 782.478 998.999L784.758 999.868C796.944 1004.51 808.588 1008.95 820.01 1012.91C845.966 1021.9 868.352 1027.5 888.245 1026.97C907.11 1026.47 924.263 1020.47 940.646 1004.38C1018.48 927.943 1061.66 824.858 1060.92 717.84C1060.32 632.09 1031.56 549.26 979.562 480.965C1012.48 563.327 1019.64 636.677 1003.58 704.203C982.75 791.755 923.818 865.361 841.216 933.759C814.848 956.922 784.607 975.103 752.058 987.682ZM935.407 763.092C937.654 748.489 938.752 733.65 938.648 718.693C938.114 642.27 906.247 569.339 850.289 515.903C819.056 486.077 781.746 463.682 741.254 449.813C748.202 447.323 755.081 444.796 761.854 442.301L764.44 441.349C778.461 436.183 791.983 431.201 805.241 426.772C842.765 414.237 873.461 407.888 899.024 413.121C964.588 527.326 980.437 617.569 962.171 694.353C956.535 718.041 947.558 740.871 935.407 763.092Z" fill="url(#paint3_linear_6633_1734)"/>
<defs>
<linearGradient id="paint0_linear_6633_1734" x1="776.515" y1="315" x2="3508.51" y2="732.601" gradientUnits="userSpaceOnUse">
<stop stop-color="#B200CD"/>
<stop offset="0.139739" stop-color="#F98257"/>
<stop offset="0.22117" stop-color="#FF8A4B"/>
<stop offset="1" stop-color="#A514FF"/>
</linearGradient>
<linearGradient id="paint1_linear_6633_1734" x1="-39.2666" y1="342.125" x2="1297.07" y2="463.109" gradientUnits="userSpaceOnUse">
<stop stop-color="#B200CD"/>
<stop offset="0.139739" stop-color="#F98257"/>
<stop offset="0.22117" stop-color="#FF8A4B"/>
<stop offset="1" stop-color="#A514FF"/>
</linearGradient>
<linearGradient id="paint2_linear_6633_1734" x1="-39.2666" y1="342.125" x2="1297.07" y2="463.109" gradientUnits="userSpaceOnUse">
<stop stop-color="#B200CD"/>
<stop offset="0.139739" stop-color="#F98257"/>
<stop offset="0.22117" stop-color="#FF8A4B"/>
<stop offset="1" stop-color="#A514FF"/>
</linearGradient>
<linearGradient id="paint3_linear_6633_1734" x1="-39.2666" y1="342.125" x2="1297.07" y2="463.109" gradientUnits="userSpaceOnUse">
<stop stop-color="#B200CD"/>
<stop offset="0.139739" stop-color="#F98257"/>
<stop offset="0.22117" stop-color="#FF8A4B"/>
<stop offset="1" stop-color="#A514FF"/>
</linearGradient>
</defs>
</svg>
